<svg width="161" height="21" viewBox="0 0 161 21" fill="none" xmlns="http://www.w3.org/2000/svg">
<g clip-path="url(#clip0_14222_9393)">
<path d="M13.5383 5.80291C13.5383 6.7102 12.7697 7.44738 11.8238 7.44738C10.8779 7.44738 10.1094 6.7102 10.1094 5.80291C10.1094 4.89562 10.8779 4.15845 11.8238 4.15845C12.7697 4.15845 13.5383 4.89562 13.5383 5.80291Z" fill="#00AFAA"/>
<path d="M44.4181 19.1855C44.4181 20.0928 43.6496 20.8299 42.7037 20.8299C41.7578 20.8299 40.9893 20.0928 40.9893 19.1855C40.9893 18.2782 41.7578 17.541 42.7037 17.541C43.6496 17.541 44.4181 18.2782 44.4181 19.1855Z" fill="#FFB600"/>
<path d="M69.3859 1.64446C69.3859 2.55175 68.6174 3.28893 67.6715 3.28893C66.7256 3.28893 65.957 2.55175 65.957 1.64446C65.957 0.737174 66.7256 0 67.6715 0C68.6174 0 69.3859 0.737174 69.3859 1.64446Z" fill="#00AFAA"/>
<path d="M143.382 5.80291C143.382 6.7102 142.614 7.44738 141.668 7.44738C140.722 7.44738 139.954 6.7102 139.954 5.80291C139.954 4.89562 140.722 4.15845 141.668 4.15845C142.614 4.15845 143.382 4.89562 143.382 5.80291Z" fill="#FFB600"/>
<path d="M13.5974 17.5977H8.51318C5.51783 17.5977 3.01514 15.2917 2.99543 12.4186C2.95602 9.69674 5.104 7.44741 7.84317 7.16388C8.17817 7.12608 8.43436 6.84255 8.43436 6.52122V4.93346C8.43436 4.55542 8.09935 4.25299 7.70522 4.29079C3.38956 4.66883 -0.0196212 8.14678 8.50007e-05 12.3808C0.0197912 16.8606 3.86251 20.4519 8.51318 20.4519H13.5974C13.9718 20.4519 14.2674 20.1684 14.2674 19.8092V18.2404C14.2674 17.8813 13.9718 17.5977 13.5974 17.5977Z" fill="black"/>
<path d="M39.3731 5.76501C37.501 4.7065 35.6486 4.6687 35.4516 4.6687C30.7615 4.6687 26.9385 8.33567 26.9385 12.8343C26.9385 15.008 27.845 17.0116 29.4806 18.4482C31.0571 19.8469 33.1854 20.603 35.4516 20.603H38.7228C39.0972 20.603 39.3928 20.3195 39.3928 19.9603V18.3915C39.3928 18.0323 39.0972 17.7488 38.7228 17.7488H35.4516C33.9342 17.7488 32.5153 17.2574 31.4906 16.3501C30.4659 15.4428 29.9141 14.2331 29.9141 12.8343C29.9141 9.90452 32.3971 7.54179 35.4319 7.54179C35.4516 7.54179 36.6537 7.57959 37.836 8.24116C39.1169 8.95943 39.8855 10.1692 40.1614 11.8325H33.7371C33.3627 11.8325 33.0671 12.116 33.0671 12.4752V14.044C33.0671 14.4032 33.3627 14.6867 33.7371 14.6867H41.7773C42.6049 14.6867 43.275 14.044 43.275 13.2502C43.275 8.90272 41.1467 6.78571 39.3731 5.76501Z" fill="black"/>
<path d="M68.4204 4.83887H66.7848C66.4103 4.83887 66.1147 5.1224 66.1147 5.48153V19.9226C66.1147 20.2817 66.4103 20.5652 66.7848 20.5652H68.4204C68.7948 20.5652 69.0904 20.2817 69.0904 19.9226V5.48153C69.0904 5.1224 68.7948 4.83887 68.4204 4.83887Z" fill="black"/>
<path d="M107.734 4.83888H106.098C105.724 4.83888 105.428 5.12241 105.428 5.48155V7.0126C103.891 5.53825 101.783 4.61206 99.4377 4.61206C94.787 4.61206 91.0034 8.24122 91.0034 12.7021C91.0034 17.1629 94.787 20.7921 99.4377 20.7921C101.783 20.7921 103.891 19.8848 105.428 18.3915V19.9037C105.428 20.2628 105.724 20.5464 106.098 20.5464H107.734C108.108 20.5464 108.404 20.2628 108.404 19.9037V5.48155C108.404 5.12241 108.108 4.83888 107.734 4.83888ZM99.4377 17.9379C96.4423 17.9379 93.9988 15.5941 93.9988 12.721C93.9988 9.84788 96.4423 7.50405 99.4377 7.50405C102.433 7.50405 104.877 9.84788 104.877 12.721C104.877 15.5941 102.433 17.9379 99.4377 17.9379Z" fill="black"/>
<path d="M61.6214 0.283447H59.9858C59.6113 0.283447 59.3157 0.566976 59.3157 0.926112V7.16374C57.7787 5.53817 55.5518 4.53637 53.0886 4.53637C48.4379 4.53637 44.6543 8.16554 44.6543 12.6264C44.6543 17.0872 48.4379 20.7164 53.0886 20.7164C55.5518 20.7164 57.7589 19.6957 59.3157 18.089V19.9414C59.3157 20.3005 59.6113 20.5841 59.9858 20.5841H61.6214C61.9958 20.5841 62.2914 20.3005 62.2914 19.9414V0.926112C62.2914 0.566976 61.9958 0.283447 61.6214 0.283447ZM53.0886 17.8433C50.0932 17.8433 47.6496 15.4995 47.6496 12.6264C47.6496 9.75329 50.0932 7.40946 53.0886 7.40946C56.0839 7.40946 58.5275 9.75329 58.5275 12.6264C58.5275 15.4995 56.0839 17.8433 53.0886 17.8433Z" fill="black"/>
<path d="M25.9337 4.82007H17.0265C16.652 4.82007 16.3564 5.1036 16.3564 5.46273V19.8849C16.3564 20.244 16.652 20.5275 17.0265 20.5275H18.6621C19.0365 20.5275 19.3321 20.244 19.3321 19.8849V7.69316H25.914C26.2884 7.69316 26.584 7.40963 26.584 7.05049V5.46273C26.6037 5.1036 26.3081 4.82007 25.9337 4.82007Z" fill="black"/>
<path d="M81.3082 4.53637C79.0223 4.53637 76.9335 5.42476 75.4161 6.8424V0.926112C75.4161 0.566976 75.1205 0.283447 74.7461 0.283447H73.1104C72.736 0.283447 72.4404 0.566976 72.4404 0.926112V19.9225C72.4404 20.2816 72.736 20.5652 73.1104 20.5652H74.7461C75.1205 20.5652 75.4161 20.2816 75.4161 19.9225V18.3915C76.9335 19.828 79.0223 20.6975 81.3082 20.6975C85.9589 20.6975 89.7425 17.0683 89.7425 12.6075C89.7425 8.16554 85.9589 4.53637 81.3082 4.53637ZM81.3082 17.8433C78.3129 17.8433 75.8693 15.4995 75.8693 12.6264C75.8693 9.7533 78.3129 7.40946 81.3082 7.40946C84.3036 7.40946 86.7472 9.7533 86.7472 12.6264C86.7472 15.4995 84.3036 17.8433 81.3082 17.8433Z" fill="black"/>
<path d="M152.566 4.63086C147.915 4.63086 144.131 8.26002 144.131 12.7209C144.131 17.1817 147.915 20.8109 152.566 20.8109C157.216 20.8109 161 17.1817 161 12.7209C161 8.26002 157.216 4.63086 152.566 4.63086ZM152.566 17.9378C149.57 17.9378 147.127 15.594 147.127 12.7209C147.127 9.84778 149.57 7.50395 152.566 7.50395C155.561 7.50395 158.005 9.84778 158.005 12.7209C158.005 15.594 155.561 17.9378 152.566 17.9378Z" fill="black"/>
<path d="M143.501 17.5977H138.358C135.362 17.5977 132.86 15.2917 132.84 12.4186C132.82 9.69674 134.949 7.46631 137.688 7.16388C138.023 7.12608 138.279 6.84255 138.279 6.52122V4.93346C138.279 4.55542 137.944 4.25299 137.55 4.29079C133.234 4.64993 129.845 8.14678 129.845 12.3808C129.864 16.8606 133.707 20.4519 138.358 20.4519H143.481C143.856 20.4519 144.151 20.1684 144.151 19.8092V18.2404C144.191 17.8813 143.876 17.5977 143.501 17.5977Z" fill="black"/>
<path d="M119.4 4.55525C114.631 4.53635 110.729 8.26002 110.729 12.8532L110.749 19.9225C110.749 20.2816 111.045 20.5651 111.419 20.5651H113.055C113.429 20.5651 113.725 20.2816 113.725 19.9225L113.705 12.8532C113.705 9.84778 116.267 7.39053 119.42 7.42833C122.534 7.46614 125.017 9.94229 125.017 12.9288V15.6507C125.017 16.0098 125.312 16.2933 125.687 16.2933H127.322C127.697 16.2933 127.992 16.0098 127.992 15.6507V12.9288C128.012 8.33563 124.169 4.57415 119.4 4.55525Z" fill="black"/>
<path d="M126.534 21.0001C125.588 21.0001 124.819 20.2629 124.819 19.3556C124.819 18.4484 125.588 17.7112 126.534 17.7112C127.48 17.7112 128.248 18.4484 128.248 19.3556C128.248 20.2629 127.48 21.0001 126.534 21.0001Z" fill="#00AFAA"/>
</g>
<defs>
<clipPath id="clip0_14222_9393">
<rect width="161" height="21" fill="white"/>
</clipPath>
</defs>
</svg>
